<?xml version="1.0" encoding="utf-8"?>
<!-- Generator: Adobe Illustrator 16.0.0, SVG Export Plug-In . SVG Version: 6.00 Build 0)  -->
<!DOCTYPE svg PUBLIC "-//W3C//DTD SVG 1.1//EN" "http://www.w3.org/Graphics/SVG/1.1/DTD/svg11.dtd">
<svg version="1.1" id="Layer_1" xmlns="http://www.w3.org/2000/svg" xmlns:xlink="http://www.w3.org/1999/xlink" x="0px" y="0px"
	 width="56px" height="56px" viewBox="0 0 56 56" enable-background="new 0 0 56 56" xml:space="preserve">
<path fill-rule="evenodd" clip-rule="evenodd" fill="#E7C2B8" d="M0.514,36c0-4,0-8,0-12c1.961-4.77,3.841-9.548,8-13.092
	c2.567-2.188,2.659-2.247,4.799,0.461c4.358,5.515,8.511,11.191,13.324,16.356c0.832,1.51,2.127,2.501,3.67,3.285
	c6.784,3.446,13.517,6.991,20.345,10.35c1.566,0.771,1.504,1.479,0.723,2.62c-1.949,2.849-4.402,5.246-7.06,7.459
	c-3.173,2.641-7.136,3.671-10.921,5.062c-3.768,0-7.535,0-11.303,0c-0.202-0.143-0.386-0.37-0.61-0.416
	c-6.951-1.43-12.081-5.394-16.355-10.749C2.868,42.504,2.158,39.058,0.514,36z"/>
<path fill-rule="evenodd" clip-rule="evenodd" fill="#3CB99E" d="M56.514,22.5c0,4.167,0,8.333,0,12.5
	c-1.346,1.15-1.345,2.905-1.955,4.366c-0.705,1.691-1.466,1.824-2.994,1.026c-7.005-3.655-14.047-7.245-21.087-10.839
	c-0.767-0.392-1.511-0.732-1.563-1.712c2.195-2.939,4.393-5.878,6.589-8.817c0.65-0.407,1.087-0.968,1.535-1.594
	c2.355-3.286,4.837-6.485,7.193-9.771c0.668-0.931,1.293-1.104,2.063-0.32c1.704,1.736,3.524,3.349,5.137,5.189
	C54.005,15.47,54.827,19.177,56.514,22.5z"/>
<path fill-rule="evenodd" clip-rule="evenodd" fill="#8D5EA1" d="M22.092,0.5c3.768,0,7.535,0,11.303,0
	c2.741,1.148,5.661,1.826,8.31,3.252c1.811,0.974,2.294,1.79,0.933,3.563c-2.811,3.66-5.431,7.457-8.129,11.198
	c-2.063,2.544-4.068,5.126-5.756,7.928c-0.673,0.6-1.345,0.6-2.017,0c-5.068-6.321-10.12-12.656-15.224-18.949
	c-0.779-0.961-0.899-1.358,0.238-2.299C14.789,2.675,18.592,1.942,22.092,0.5z"/>
<path fill-rule="evenodd" clip-rule="evenodd" fill="#FEFEFE" d="M34.508,18.512c0.332,0.171,0.664,0.342,0.996,0.512
	c-2.196,2.939-4.394,5.878-6.589,8.817c-0.054-0.467-0.108-0.934-0.163-1.402C30.439,23.639,32.445,21.057,34.508,18.512z"/>
</svg>
