<?xml version="1.0" encoding="utf-8"?>
<!-- Generator: Adobe Illustrator 16.0.0, SVG Export Plug-In . SVG Version: 6.00 Build 0)  -->
<!DOCTYPE svg PUBLIC "-//W3C//DTD SVG 1.1//EN" "http://www.w3.org/Graphics/SVG/1.1/DTD/svg11.dtd">
<svg version="1.1" xmlns="http://www.w3.org/2000/svg" xmlns:xlink="http://www.w3.org/1999/xlink" x="0px" y="0px" width="56px"
	 height="56px" viewBox="0 0 56 56" enable-background="new 0 0 56 56" xml:space="preserve">
<g id="Layer_1" display="none">
	<circle display="inline" fill="#A67BBF" cx="28" cy="28" r="28"/>
	<path display="inline" fill="#785F8E" d="M26.569,55.963l14.696-14.697l-8.531-8.834L14.161,15.334L0.039,29.457
		c0.346,6.672,3.065,13.245,8.162,18.342C13.305,52.902,19.888,55.623,26.569,55.963z"/>
	<circle display="inline" fill="#A67BBF" cx="28" cy="28" r="18.761"/>
	<path display="inline" fill="#8B6EA0" d="M14.734,41.266c3.662,3.664,8.464,5.495,13.266,5.495V9.239
		c-4.801,0-9.604,1.832-13.266,5.495C7.407,22.061,7.407,33.939,14.734,41.266z"/>
	<circle display="inline" fill="#E6F3FF" cx="28" cy="28" r="14.592"/>
	<path display="inline" fill="#CFDBE6" d="M17.682,38.318c2.85,2.849,6.584,4.273,10.318,4.273V13.408
		c-3.734,0-7.469,1.425-10.318,4.274C11.983,23.38,11.983,32.619,17.682,38.318z"/>
	<path display="inline" fill="#324A5E" d="M32.113,33.892l-4.824-4.823c-0.212-0.213-0.331-0.5-0.331-0.8V18.62
		c0-0.625,0.507-1.131,1.131-1.131s1.131,0.506,1.131,1.131v9.179l4.492,4.493c0.442,0.442,0.442,1.158,0,1.6
		c-0.221,0.222-0.51,0.331-0.799,0.331C32.624,34.223,32.334,34.113,32.113,33.892z"/>
	<path display="inline" fill="#2B3B4E" d="M26.958,18.62v9.648c0,0.3,0.119,0.587,0.331,0.8L28,29.778V17.493
		C27.417,17.539,26.958,18.025,26.958,18.62z"/>
</g>
<g id="Layer_2">
	<g id="Layer_15">
		<path fill="#706072" d="M14.926,30.435c0.168,0,12.893,0,12.893,0l8.275,9.751L22.469,46.64L20.65,43.11
			c0,0,9.587-2.547,1.538-8.821c-5.628,3.595-8.838,8.235-8.838,8.235s-1.239,6.729,5.742,10.652
			c-6.981-4.51-14.631-1.554-8.157-20.897c7.544,0,4.33-1.845,4.33-1.845"/>
	</g>
	<g id="Layer_2_1_">
		<g>
			<path fill="#504096" d="M55.152,27.441c-0.004-0.044-0.01-0.088-0.016-0.131c-0.002-0.045-0.066-0.047-0.074-0.006
				c-0.016,0.098-0.021,0.083-0.006,0.161C55.07,27.537,55.175,27.51,55.152,27.441z"/>

				<linearGradient id="SVGID_1_" gradientUnits="userSpaceOnUse" x1="407.7393" y1="-195.5684" x2="459.2109" y2="-195.5684" gradientTransform="matrix(0.9128 0.4084 0.4084 -0.9128 -288.7214 -327.4709)">
				<stop  offset="0.2118" style="stop-color:#900C3E"/>
				<stop  offset="1" style="stop-color:#FF5733"/>
			</linearGradient>
			<path fill="url(#SVGID_1_)" d="M54.999,27.933c-0.108,0.521-0.311,0.942-0.548,1.334c-0.021,0.006-0.037,0.013-0.055,0.032
				c-0.258,0.313-0.505,0.629-0.749,0.949c0.265-0.706,0.479-1.418,0.582-2.106c0.056-0.406,0.062-0.878,0.021-1.375
				c0.071-0.021,0.132-0.07,0.149-0.159c0.142-0.783-0.095-1.562-0.313-2.307c-0.233-0.806-0.495-1.491-1.069-2.124
				c-0.036-0.042-0.121-0.006-0.089,0.049c0.02,0.042,0.038,0.084,0.063,0.127c0.021,0.043,0.081,0.021,0.069-0.027
				c0.112,0.432,0.193,0.896,0.27,1.368c-0.412-0.711-0.953-1.288-1.638-1.559c-0.056-0.098-0.114-0.192-0.184-0.299
				c-0.193-0.295-0.406-0.575-0.639-0.84c-0.231-0.262-0.68-0.379-0.973-0.563c-0.097-0.06-0.198,0.034-0.143,0.136
				c0.034,0.067,0.064,0.139,0.095,0.213l-0.019-0.01c-0.019-0.037-0.042-0.069-0.063-0.106c-0.261-0.45-0.662-0.807-0.867-1.284
				c-0.008-0.027-0.052-0.019-0.048,0.012c0.052,0.275,0.139,0.471,0.274,0.715c0.315,0.564,0.479,1.2,0.781,1.773
				c0.237,0.459,0.557,0.909,0.901,1.331c0.011,0.082,0.041,0.168,0.099,0.253c1.479,2.111,2.395,4.132,0.628,6.504
				c-1.48,1.988-3.29,2.898-5.801,3.136c-2.109,0.2-4.259,0.363-4.798-2.356c-0.25-1.273,0.124-1.973,0.146-3.113
				c0.043-1.928,0.223-3.882-0.041-5.802c-0.02-0.113-0.16-0.123-0.206-0.035c-0.105-0.164-0.188-0.324-0.271-0.479
				c0.201-0.974-0.189-2.375-0.533-3.234c-0.169-0.416-0.521-0.659-0.906-0.739c0.01-0.45-0.138-0.894-0.367-1.309
				c0.023-0.123,0.037-0.254,0.02-0.403c-0.058-0.522-0.354-1.011-0.688-1.397c-0.419-0.484-0.727-1.008-1.104-1.528
				c-0.297-0.404-0.629-0.579-0.962-0.6c-0.386-0.467-0.654-1-1.276-1.208c-0.37-0.125-0.79-0.088-1.118,0.097
				c-0.751-0.871-1.622-1.658-2.59-2.055c-0.084-0.643-0.397-1.26-1.018-1.726c-0.629-0.473-1.208-0.68-1.778-0.752
				c-0.047-0.029-0.091-0.056-0.144-0.088c-0.941-0.297-1.842-0.495-2.815-0.656c-0.282-0.046-0.545-0.083-0.801-0.115
				c-0.334-0.229-0.741-0.395-1.242-0.454c-0.12-0.015-0.248-0.026-0.372-0.042c-0.652-0.129-1.357-0.164-2.084-0.129
				c-1.908-0.03-3.954,0.227-5.338,1.225c-0.999,0.395-1.89,0.839-2.582,1.27c-1.512,0.944-3.811,1.713-4.997,3.094
				c-1.899,2.212-3.278,4.576-4.39,7.278c-0.942,2.295-0.866,4.333-0.985,6.813c-0.098,2.052-0.802,3.898-0.023,5.932
				c0.134,0.352,0.272,0.692,0.413,1.024c-0.112,1.124,0.082,2.273,0.628,3.223c0.008,0.012,0.018,0.023,0.026,0.034
				c0.376,2.205,3.229,4.398,4.547,6.067c0.504,0.635,1.123,0.928,1.736,0.971c0.469,0.563,0.979,1.088,1.584,1.446
				c-0.309-0.443-0.626-0.88-0.975-1.297c-0.285-0.337-0.565-0.664-0.782-1.018c-0.254-0.252-0.468-0.558-0.685-0.838
				c-0.094-0.12-0.185-0.245-0.276-0.37c-1.325-0.904-2.467-2.032-2.904-3.529c-0.104-0.355,0.332-0.749,0.662-0.507
				c1.878,1.365,3.551,2.988,5.638,4.058c0.058,0.03,0.118,0.05,0.176,0.081c-2.301-1.674-3.941-4-4.753-6.769
				c-0.04-0.137,0.146-0.199,0.222-0.094c1.148,1.626,2.429,3.312,3.965,4.646c-0.973-1.092-1.75-2.43-2.209-3.784
				c-2.148-1.815-3.861-4.181-4.698-6.681c0.127,1.59,0.187,3.205,0.857,4.633c0.069,0.147-0.107,0.303-0.233,0.181
				C3.325,30.03,2.421,26.5,3.26,23.651c0.09-0.308,0.565-0.415,0.722-0.095c0.101,0.207,0.169,0.421,0.245,0.634
				c-0.074-2.875,1.195-5.662,4.443-7.692c0.208-0.13,0.513,0.141,0.354,0.354c-5.728,7.598,0.448,15.233,6.929,19.839
				c0.077,0.055,0.108,0.133,0.106,0.206c0.072,0.034,0.141,0.075,0.212,0.111c-0.099-0.213-0.199-0.426-0.294-0.644
				c-3.12-2.261-6.394-5.537-7.214-9.315c-0.01-0.044,0.044-0.064,0.07-0.028c1.778,2.468,4.72,4.9,7.254,6.663
				c0.072,0.024,0.142,0.059,0.2,0.11c0.03,0.024,0.052,0.056,0.08,0.084c0.036,0.023,0.073,0.05,0.108,0.074
				c1.283,0.872,2.964,2.232,4.598,2.271c0.696,0.017,1.18-0.296,1.641-0.689c-0.273-0.819-0.786-1.546-1.545-1.922
				c-0.098-0.048-0.158-0.068-0.196-0.076c-0.165,0.211-0.299,0.427-0.502,0.609c-0.481,0.436-1.178,0.471-1.647,0
				c-1.327-1.327,0.49-3.203,1.868-3.339c0.032-0.002,0.063,0.002,0.094,0c-0.54-0.299-1.104-0.489-1.667-0.488
				c-0.25,0-0.287-0.299-0.117-0.43c1.446-1.112,2.262-1.501,4.151-0.78c1.381,0.528,2.624,1.845,3.447,3.195
				c-0.015-0.193-0.02-0.383-0.011-0.575c0.021-0.516,0.66-0.673,0.942-0.256c0.22,0.328,0.412,0.703,0.594,1.093
				c0.007,0.003,0.012,0.009,0.02,0.013c-0.231-0.692-0.509-1.369-0.844-2.014c-0.044-0.556-0.171-1.094-0.542-1.533
				c-0.932-1.106-0.837-4.137-0.422-5.892c0.172-0.723-0.015-1.279-0.384-1.664c0.049-0.091,0.09-0.191,0.147-0.268
				c1.407-1.973,2.824-2.877,4.753-3.317c0.426,0.064,0.808,0.128,1.073,0.161c0.065,0.007,0.122-0.001,0.183,0
				c0.516,0.685,1.402,1.241,1.924,1.633c0.27,0.203,0.559,0.232,0.821,0.167c0.188,0.505,0.386,1.012,0.761,1.408
				c0.354,0.376,0.372,0.683,0.366,1.191c0.023,0.198,0.073,0.384,0.146,0.564c0.058,0.308,0.192,0.859,0.22,1.042
				c0.109,0.762,0.491,1.26,1.052,1.756c0.027,0.022,0.054,0.033,0.08,0.053c-0.145,0.57-0.226,1.16-0.286,1.735
				c-0.055,0.195-0.108,0.393-0.172,0.583c-0.093,0.279-0.045,0.531,0.076,0.733c0.009,0.07,0.018,0.143,0.027,0.214
				c-0.052,0.086-0.098,0.18-0.118,0.288c-0.08,0.354-0.152,0.729-0.186,1.102c-0.068-0.604-0.112-1.219-0.168-1.828
				c-0.013-0.118-0.175-0.109-0.2-0.006c-2.14,8.851,7.355,11.118,13.327,6.892c0.05-0.037,0.098-0.085,0.149-0.122
				c2.456-0.893,3.888-3.695,4.634-6.046c0.188-0.479,0.359-0.968,0.51-1.455C55.092,27.899,55.012,27.875,54.999,27.933z
				 M6.536,15.595c-0.068,0.1-0.216,0.013-0.161-0.094c1.126-2.22,3.044-3.555,5.405-4.189c0.275-0.073,0.474,0.355,0.199,0.472
				C9.917,12.655,7.821,13.691,6.536,15.595z M17.376,11.975c-2.844,1.947-4.795,4.586-6.314,7.649
				c-0.074,0.15-0.349,0.085-0.327-0.089c0.909-7.059,9.331-13.06,16.359-12.177c0.501,0.064,0.616,0.701,0.12,0.885
				C23.886,9.483,20.395,9.909,17.376,11.975z M34.277,15.633c-2.036-2.109-4.881-4.908-8.081-4.165
				c-0.188,0.043-0.266-0.237-0.081-0.286c3.398-0.882,6.326,1.896,8.334,4.28C34.547,15.58,34.388,15.747,34.277,15.633z"/>
			<g id="Layer_1_2_">

					<linearGradient id="SVGID_2_" gradientUnits="userSpaceOnUse" x1="326.4795" y1="-307.3994" x2="363.0901" y2="-286.2623" gradientTransform="matrix(0.9915 0.1303 0.1303 -0.9915 -282.9973 -317.5825)">
					<stop  offset="0.1034" style="stop-color:#375879"/>
					<stop  offset="0.4975" style="stop-color:#7298AC"/>
				</linearGradient>
				<path fill="url(#SVGID_2_)" d="M40.675,27.412c0.392-1.345,0.691-2.708,0.702-4.11c0.024-2.708-0.431-5.258-1.002-7.798
					c-2.456-3.748-3.037-4.153-4.173-5.124c-1.167-0.994-3.933-2.566-5.478-3.209c-1.54-0.644-6.3-1.103-10.069,0.125
					c-3.771,1.227-6.817,3.078-8.116,4.317c-0.926,0.885-2.49,2.563-3.623,4.897c0.124,0.069,0.205,0.211,0.108,0.341
					c-0.268,0.355-0.484,0.711-0.701,1.066c-0.194,0.542-0.37,1.105-0.498,1.706c-0.859,4.025-0.45,7.046,1.427,9.083
					c0.028,0.03,0.062,0.067,0.092,0.1c-0.244-0.573-0.451-1.155-0.581-1.756c-0.009-0.044,0.044-0.065,0.07-0.029
					c1.185,1.644,2.884,3.271,4.637,4.694c1.508,0.474,3.364,0.468,5.585-0.67c0.05-0.063,0.098-0.129,0.149-0.196
					c-0.104,0.067-0.207,0.131-0.317,0.186c-0.042,0.02-0.069-0.039-0.036-0.067c0.218-0.161,0.386-0.37,0.526-0.61
					c-0.086-0.008-0.171-0.038-0.257-0.038c-0.251,0-0.287-0.299-0.118-0.43c0.269-0.206,0.511-0.377,0.748-0.529
					c0.164-0.779,0.16-1.705,0.079-2.649c-0.137,0.095-0.266,0.187-0.363,0.298c-0.979-0.544-4.099-1.32-5.757-2.829
					c-1.569-1.822-0.404-3.988,0.571-4.537c0.417-0.195,1.904-0.537,2.494,1.641c0.461-1.65-0.751-3.761-3.331-3.271
					c-1.502-3.057,4.354-5.909,6.937-6.693c4.764-1.443,8.637-0.095,9.162-0.021c-2.792-1.037-5.209-1.632-8.329-1.178
					c-1.326,0.46-2.622,1.021-3.836,1.854c-2.844,1.947-4.795,4.586-6.313,7.649c-0.074,0.15-0.35,0.085-0.328-0.089
					c0.908-7.059,9.33-13.06,16.358-12.177c0.501,0.064,0.616,0.701,0.12,0.885c-0.673,0.251-1.352,0.464-2.031,0.668
					c2.47,0.015,5.562,0.603,7.526,1.878c2.366,1.532,4.732,3.205,6.645,6.899c1.431,2.778,1.609,6.302,1.495,8.289
					C40.825,26.423,40.764,26.906,40.675,27.412z"/>

					<linearGradient id="SVGID_3_" gradientUnits="userSpaceOnUse" x1="326.8613" y1="-308.0425" x2="363.4689" y2="-286.9071" gradientTransform="matrix(0.9915 0.1303 0.1303 -0.9915 -282.9973 -317.5825)">
					<stop  offset="0.1034" style="stop-color:#375879"/>
					<stop  offset="0.4975" style="stop-color:#7298AC"/>
				</linearGradient>
				<path fill="url(#SVGID_3_)" d="M24.641,4.369C13.129,2.857,2.548,11.167,1.004,22.927c-1.229,9.346,3.633,18.033,11.455,21.971
					c-0.645-0.948-1.259-1.908-1.994-2.792c-3.436-2.312-6.019-6.126-7.101-7.923c-0.07-0.087-0.142-0.167-0.21-0.259
					c-0.02-0.024-0.023-0.046-0.022-0.07c-0.058-0.072-0.12-0.142-0.096-0.236c-0.15-0.262-0.233-0.418-0.233-0.418
					s0.073,0.124,0.27,0.398c0.021,0,0.044,0,0.064,0.004c0.013,0,0.012,0.016,0.002,0.018c-0.002,0.003,0.039,0.044,0.098,0.108
					c0.042-0.009,0.088-0.009,0.124,0.039c0.129,0.169,0.274,0.327,0.418,0.491c0.261,0.233,0.508,0.479,0.764,0.721
					c0.459,0.582,0.959,1.106,1.294,1.452c-0.014-0.044-0.038-0.081-0.051-0.125c-0.104-0.355,0.333-0.749,0.662-0.507
					c1.878,1.365,3.552,2.988,5.639,4.058c0.058,0.03,0.119,0.05,0.177,0.081c-1.283-0.933-2.362-2.069-3.203-3.371
					c-2.006-1.551-3.189-3.306-3.894-4.777c-1.903-2.067-2.71-5.41-1.908-8.138c0.09-0.308,0.565-0.415,0.722-0.095
					c0.102,0.208,0.17,0.424,0.247,0.638c-0.061-2.353,0.775-4.647,2.861-6.516c0.346-1.037,0.772-2.011,1.347-2.848
					c0.447-0.655,1.021-1.411,1.712-2.199c-1.407,0.725-2.71,1.628-3.611,2.964c-0.069,0.1-0.217,0.013-0.162-0.094
					c1.036-2.041,2.744-3.325,4.846-4.013c1.224-1.204,2.748-2.407,4.619-3.377c3.716-1.932,8.273-3.019,13.254-1.779
					c0.423-0.028,1.346-0.176,1.828-1.259C28.701,5.782,26.628,4.631,24.641,4.369z"/>

					<linearGradient id="SVGID_4_" gradientUnits="userSpaceOnUse" x1="330.1982" y1="-313.835" x2="366.8055" y2="-292.6998" gradientTransform="matrix(0.9915 0.1303 0.1303 -0.9915 -282.9973 -317.5825)">
					<stop  offset="0.1034" style="stop-color:#375879"/>
					<stop  offset="0.4975" style="stop-color:#7298AC"/>
				</linearGradient>
				<path fill="url(#SVGID_4_)" d="M38.094,25.208c0.481-3.479-1.202-6.093-2.141-7.51c0.137,0.455,0.118,0.407-0.242,1.676
					c-0.65-1.013-3.374-2.249-5.493-2.455c-3.616-0.353-4.673,1.364-4.862,1.144c-0.188-0.219-0.203-0.32,0.01-2.684
					c-2.09,1.468-3.159,4.3-3.762,6.621c-0.084,1.511-0.156,2.998,0.097,4.441c0.049-0.08,0.049-0.057,0.049-0.057
					s-0.018,0.035-0.044,0.095c0.148,0.824,0.411,1.632,0.828,2.425c0.195,0.056,0.399,0.12,0.621,0.205
					c0.428,0.163,0.84,0.404,1.236,0.695c1.022,0.199,1.587,0.284,2.058,1.299c0.061,0.136,0.125,0.311,0.186,0.505
					c0.121-0.402,0.643-0.512,0.897-0.136c0.22,0.331,0.416,0.704,0.599,1.096c0.038,0.016,0.071,0.042,0.093,0.083
					c0.148,0.27,0.268,0.557,0.377,0.851c0.503,0.335,0.955,1.07,1.284,1.696c-0.016-0.127-0.029-0.252-0.042-0.376
					c-0.59-0.887-1.078-1.903-1.461-2.977c-0.26-0.644-0.476-1.312-0.66-1.983c-0.23-0.465-0.438-0.938-0.613-1.418
					c-1.026-1.157-1.209-3.203-0.644-4.691c-0.023-1.441,0.912-2.767,2.206-3.394c1.757-0.851,3.754-0.706,5.196,0.683
					c0.649,0.626,1.203,1.448,1.464,2.321c0.147,0.503,0.309,1.016,0.346,1.545c0.017,0.199,0.026,0.4,0.022,0.601
					c0.01,0.174,0.01,0.285,0.01,0.347c0.004,0.019,0.01,0.033,0.014,0.052c0.368,1.702-2.221,2.319-2.875,0.79
					c-0.309-0.728-0.144-1.539-0.355-2.31c-0.296,1.054-0.708,2.066-1.024,3.124c-0.01,0.028-0.021,0.049-0.031,0.077
					c0.514,2.5,2.533,5.625,3.948,6.94c0.095-0.332,0.187-0.659,0.269-0.971c0.071-0.187,0.135,0.118,1.544,1.254
					c-0.181-0.83-0.31-2.825-0.268-3.505C36.966,30.625,37.613,28.688,38.094,25.208z"/>

					<linearGradient id="SVGID_5_" gradientUnits="userSpaceOnUse" x1="331.042" y1="-315.2998" x2="367.6411" y2="-294.1693" gradientTransform="matrix(0.9915 0.1303 0.1303 -0.9915 -282.9973 -317.5825)">
					<stop  offset="0.1034" style="stop-color:#375879"/>
					<stop  offset="0.4975" style="stop-color:#7298AC"/>
				</linearGradient>
				<path fill="url(#SVGID_5_)" d="M16.06,36.896c0.071,0.034,0.141,0.075,0.211,0.111c-0.099-0.213-0.198-0.426-0.295-0.645
					c-1.573-1.146-3.177-2.553-4.496-4.147c-0.349-0.153-0.698-0.312-1.044-0.508c1.592,1.885,3.538,3.579,5.517,4.982
					C16.03,36.745,16.062,36.823,16.06,36.896z"/>

					<linearGradient id="SVGID_6_" gradientUnits="userSpaceOnUse" x1="328.8594" y1="-311.5293" x2="365.4852" y2="-290.3834" gradientTransform="matrix(0.9915 0.1303 0.1303 -0.9915 -282.9973 -317.5825)">
					<stop  offset="0.1034" style="stop-color:#375879"/>
					<stop  offset="0.4975" style="stop-color:#7298AC"/>
				</linearGradient>
				<path fill="url(#SVGID_6_)" d="M7.731,33.075c0.734,1.04,1.521,2.105,2.39,3.093c0.238,0.157,0.478,0.305,0.72,0.448
					c-0.575-0.837-1.039-1.752-1.353-2.679c-2.149-1.813-3.863-4.181-4.699-6.681c0.102,1.262,0.166,2.539,0.519,3.725
					c0.715,1.387,1.635,2.53,2.67,3.504c-0.174-0.431-0.335-0.864-0.467-1.316C7.47,33.032,7.657,32.97,7.731,33.075z"/>

					<linearGradient id="SVGID_7_" gradientUnits="userSpaceOnUse" x1="332.0791" y1="-317.0938" x2="368.6836" y2="-295.9602" gradientTransform="matrix(0.9915 0.1303 0.1303 -0.9915 -282.9973 -317.5825)">
					<stop  offset="0.1034" style="stop-color:#375879"/>
					<stop  offset="0.4975" style="stop-color:#7298AC"/>
				</linearGradient>
				<path fill="url(#SVGID_7_)" d="M21.169,33.612c-0.098-0.048-0.158-0.068-0.195-0.076c-0.165,0.211-0.3,0.427-0.503,0.609
					c-0.481,0.436-1.178,0.471-1.647,0c-0.485-0.486-0.543-1.043-0.362-1.563c-1.083,0.301-2.178,0.473-3.279,0.452
					c0.307,0.225,0.611,0.44,0.911,0.651c0.07,0.024,0.137,0.059,0.194,0.108c0.029,0.024,0.051,0.054,0.078,0.08
					c0.037,0.025,0.074,0.052,0.11,0.078c1.274,0.866,2.944,2.216,4.569,2.268c0.53-0.506,0.863-1.117,1.079-1.811
					C21.866,34.079,21.548,33.802,21.169,33.612z"/>
			</g>
		</g>
	</g>
</g>
</svg>
